HIERARCHY
ROOT Hips
{
    OFFSET -0.1800 -22.3300 2.8200
    CHANNELS 6 Xposition Yposition Zposition Zrotation Yrotation Xrotation 
    JOINT LeftUpLeg
    {
        OFFSET -0.6800 6.9500 -9.1400
        CHANNELS 3 Zrotation Yrotation Xrotation
        JOINT LeftLeg
        {
            OFFSET -0.4500 3.4300 -37.5200
            CHANNELS 3 Zrotation Yrotation Xrotation
            JOINT LeftFoot
            {
                OFFSET -4.3700 -1.3600 -39.8000
                CHANNELS 3 Zrotation Yrotation Xrotation
                JOINT LeftToe
                {
                    OFFSET 11.9300 2.6400 -5.5800
                    CHANNELS 3 Zrotation Yrotation Xrotation
                    End Site
                    {
                        OFFSET 0.0000 0.0000 0.0000
                    }
                }
            }
        }
    }
    JOINT RightUpLeg
    {
        OFFSET -0.4300 -6.7700 -9.0500
        CHANNELS 3 Zrotation Yrotation Xrotation
        JOINT RightLeg
        {
            OFFSET -0.8900 -3.8300 -38.2600
            CHANNELS 3 Zrotation Yrotation Xrotation
            JOINT RightFoot
            {
                OFFSET -4.2300 1.5800 -39.8400
                CHANNELS 3 Zrotation Yrotation Xrotation
                JOINT RightToe
                {
                    OFFSET 12.3300 -2.5400 -4.8100
                    CHANNELS 3 Zrotation Yrotation Xrotation
                    End Site
                    {
                        OFFSET 0.0000 0.0000 0.0000
                    }
                }
            }
        }
    }
    JOINT Spine
    {
        OFFSET -2.6700 -0.2500 10.9000
        CHANNELS 3 Zrotation Yrotation Xrotation
        JOINT Spine1
        {
            OFFSET 0.1100 0.5500 13.5200
            CHANNELS 3 Zrotation Yrotation Xrotation
            JOINT Spine2
            {
                OFFSET 2.5400 0.1500 5.2900
                CHANNELS 3 Zrotation Yrotation Xrotation
                JOINT Neck
                {
                    OFFSET -4.2900 -0.2800 21.3900
                    CHANNELS 3 Zrotation Yrotation Xrotation
                    JOINT Head
                    {
                        OFFSET 5.1300 0.5200 6.5000
                        CHANNELS 3 Zrotation Yrotation Xrotation
                        End Site
                        {
                            OFFSET 0.0000 0.0000 0.0000
                        }
                    }
                }
                JOINT LeftShoulder
                {
                    OFFSET -3.4100 7.8800 12.1700
                    CHANNELS 3 Zrotation Yrotation Xrotation
                    JOINT LeftArm
                    {
                        OFFSET -0.8900 9.1000 3.0500
                        CHANNELS 3 Zrotation Yrotation Xrotation
                        JOINT LeftForeArm
                        {
                            OFFSET -2.7500 25.9600 -1.2800
                            CHANNELS 3 Zrotation Yrotation Xrotation
                            JOINT LeftHand
                            {
                                OFFSET -1.4900 8.4000 -0.8200
                                CHANNELS 3 Zrotation Yrotation Xrotation
                                End Site
                                {
                                    OFFSET 0.0000 0.0000 0.0000
                                }
                            }
                        }
                    }
                }
                JOINT RightShoulder
                {
                    OFFSET -3.8600 -8.1800 11.8800
                    CHANNELS 3 Zrotation Yrotation Xrotation
                    JOINT RightArm
                    {
                        OFFSET -0.9100 -9.6000 3.2600
                        CHANNELS 3 Zrotation Yrotation Xrotation
                        JOINT RightForeArm
                        {
                            OFFSET -2.1400 -25.3700 -1.3300
                            CHANNELS 3 Zrotation Yrotation Xrotation
                            JOINT RightHand
                            {
                                OFFSET -1.0300 -8.4600 -0.6100
                                CHANNELS 3 Zrotation Yrotation Xrotation
                                End Site
                                {
                                    OFFSET 0.0000 0.0000 0.0000
                                }
                            }
                        }
                    }
                }
            }
        }
    }
}
MOTION
Frames: 8
Frame Time: 0.016667
-13.853122 -30.058208 93.490964 0.621137 1.541298 -142.350395 0.560202 -2.700389 -6.566135 -1.675256 8.778912 2.051874 -3.093709 -6.176490 12.351579 4.292892 7.339331 -12.591137 -5.713095 1.780549 -5.569746 -0.037131 4.040512 -2.859069 6.794123 -4.827605 -4.842444 -3.281103 9.583878 -4.422903 2.546906 4.513943 0.171458 1.182264 -0.814180 1.014241 -0.794964 -0.151860 1.460829 -2.268549 2.070576 2.047375 2.096374 1.862564 0.628678 -7.563784 -8.111004 -10.976686 -24.222752 -3.585909 -14.051888 15.024435 11.608122 -107.151423 26.423517 1.593768 -9.881892 12.115762 -2.879755 10.312734 44.692912 1.900272 21.886049 -2.613104 15.263577 115.990295 -5.051982 -11.032452 12.941340
-14.130384 -29.761171 93.597925 1.238289 1.667718 -142.597875 0.560202 -2.700389 -6.566135 -1.675256 8.778912 2.051874 -3.093709 -6.176490 12.351579 4.292892 7.339331 -12.591137 -5.713095 1.780549 -5.569746 -0.037131 4.040512 -2.859069 6.794123 -4.827605 -4.842444 -3.281103 9.583878 -4.422903 2.546906 4.513943 0.171458 1.182264 -0.814180 1.014241 -0.794964 -0.151860 1.460829 -2.268549 2.070576 2.047375 2.096374 1.862564 0.628678 -7.563784 -8.111004 -10.976686 -24.222752 -3.585909 -14.051888 15.024435 11.608122 -107.151423 26.423517 1.593768 -9.881892 12.115762 -2.879755 10.312734 44.692912 1.900272 21.886049 -2.613104 15.263577 115.990295 -5.051982 -11.032452 12.941340
-14.340374 -29.483593 93.776917 1.723132 1.802103 -142.645259 0.731725 -2.788548 -5.681118 -0.832564 9.385605 1.600500 -4.315213 -5.736609 13.644588 4.981107 7.080700 -14.338688 -4.819783 1.912953 -5.210527 0.421090 6.653679 -3.186519 5.589036 -6.759043 -5.882531 3.446785 16.199763 -0.916894 3.287365 6.338537 -2.095191 2.659502 -2.019050 -0.856433 -0.440779 -0.169106 1.170323 -2.520097 1.926606 5.544171 1.406977 3.486918 1.725175 -5.193219 -9.773839 -12.210955 -19.448677 -4.227820 -13.593005 16.879537 7.523891 -103.134815 28.207495 2.849483 -10.628671 12.498618 -1.147165 9.925193 44.334207 5.519503 22.496500 -1.210638 15.611762 112.923991 -6.192431 -12.290390 14.692243
-14.411961 -29.136854 93.946254 2.019383 1.944318 -142.281000 0.731725 -2.788548 -5.681118 -0.832564 9.385605 1.600500 -4.315213 -5.736609 13.644588 4.981107 7.080700 -14.338688 -4.819783 1.912953 -5.210527 0.421090 6.653679 -3.186519 5.589036 -6.759043 -5.882531 3.446785 16.199763 -0.916894 3.287365 6.338537 -2.095191 2.659502 -2.019050 -0.856433 -0.440779 -0.169106 1.170323 -2.520097 1.926606 5.544171 1.406977 3.486918 1.725175 -5.193219 -9.773839 -12.210955 -19.448677 -4.227820 -13.593005 16.879537 7.523891 -103.134815 28.207495 2.849483 -10.628671 12.498618 -1.147165 9.925193 44.334207 5.519503 22.496500 -1.210638 15.611762 112.923991 -6.192431 -12.290390 14.692243
-14.437607 -28.604949 94.132078 1.981343 2.103515 -141.328334 1.551758 -2.374962 -4.338675 -2.459788 9.440284 -1.276595 -7.798274 -5.742728 14.116222 0.833096 4.856189 -15.710203 -4.243973 3.732742 -5.773772 0.752690 4.237280 -2.983055 2.385256 -4.201165 -10.729098 4.725101 16.881495 1.397203 3.719483 5.508123 -3.120517 3.622941 -1.256776 -1.922779 0.010550 -0.360243 0.521132 -2.912658 3.671677 7.867038 1.513882 4.127724 4.677728 -3.114472 -11.339538 -12.531622 -15.396703 -3.998352 -12.040723 13.825959 6.046379 -101.419741 18.658607 2.355166 -10.865674 8.859133 -1.513668 9.595305 40.532790 5.388531 21.369664 -0.117436 13.696328 119.149446 1.358848 -24.376453 13.531198
-14.428206 -28.042072 94.286925 1.452254 2.331348 -140.446715 1.551758 -2.374962 -4.338675 -2.459788 9.440284 -1.276595 -7.798274 -5.742728 14.116222 0.833096 4.856189 -15.710203 -4.243973 3.732742 -5.773772 0.752690 4.237280 -2.983055 2.385256 -4.201165 -10.729098 4.725101 16.881495 1.397203 3.719483 5.508123 -3.120517 3.622941 -1.256776 -1.922779 0.010550 -0.360243 0.521132 -2.912658 3.671677 7.867038 1.513882 4.127724 4.677728 -3.114472 -11.339538 -12.531622 -15.396703 -3.998352 -12.040723 13.825959 6.046379 -101.419741 18.658607 2.355166 -10.865674 8.859133 -1.513668 9.595305 40.532790 5.388531 21.369664 -0.117436 13.696328 119.149446 1.358848 -24.376453 13.531198
-14.468765 -27.601516 94.426042 1.154355 2.089536 -140.011017 0.282025 -0.372965 -4.676817 -2.660204 5.845677 -1.495921 -7.878373 -4.923299 14.250457 0.175525 6.755443 -17.726445 -5.094403 5.695066 -7.204780 -0.435743 0.815356 -3.007130 3.141131 -0.533530 -11.496268 4.389826 13.211638 1.922778 3.656770 4.016034 -3.526358 3.920060 -2.303767 -2.272768 -1.174967 0.230255 0.634746 -3.850020 5.009950 7.589304 2.368814 3.864132 3.961421 2.368789 -11.240118 -17.475835 -5.117568 -7.298264 -15.396794 15.766815 1.257921 -88.997688 19.492221 11.167575 -8.545139 4.939787 -2.029636 10.503372 38.134068 5.864620 21.167136 4.407397 11.854228 114.866053 -3.397335 -18.753644 14.465072
-14.473227 -27.219912 94.603914 0.972355 1.875690 -138.908239 0.282025 -0.372965 -4.676817 -2.660204 5.845677 -1.495921 -7.878373 -4.923299 14.250457 0.175525 6.755443 -17.726445 -5.094403 5.695066 -7.204780 -0.435743 0.815356 -3.007130 3.141131 -0.533530 -11.496268 4.389826 13.211638 1.922778 3.656770 4.016034 -3.526358 3.920060 -2.303767 -2.272768 -1.174967 0.230255 0.634746 -3.850020 5.009950 7.589304 2.368814 3.864132 3.961421 2.368789 -11.240118 -17.475835 -5.117568 -7.298264 -15.396794 15.766815 1.257921 -88.997688 19.492221 11.167575 -8.545139 4.939787 -2.029636 10.503372 38.134068 5.864620 21.167136 4.407397 11.854228 114.866053 -3.397335 -18.753644 14.465072
